<svg xmlns="http://www.w3.org/2000/svg" viewBox="0 0 24 24" fill="none" stroke="currentColor" stroke-width="2" stroke-linecap="round" stroke-linejoin="round" class="animated-icon">
  <path d="M9.5 2A2.5 2.5 0 0 1 12 4.5v15a2.5 2.5 0 0 1-4.96.44L2.5 20.5a2.5 2.5 0 0 1 0-5l4.04-1.06A2.5 2.5 0 0 1 9.5 2z"></path>
  <path d="M14.5 2A2.5 2.5 0 0 0 12 4.5v15a2.5 2.5 0 0 0 4.96.44L21.5 20.5a2.5 2.5 0 0 0 0-5l-4.04-1.06A2.5 2.5 0 0 0 14.5 2z"></path>
  <style>
    .animated-icon {
      animation: pulse 2s ease-in-out infinite;
    }
    @keyframes pulse {
      0%, 100% { opacity: 1; transform: scale(1); }
      50% { opacity: 0.9; transform: scale(1.05); }
    }
  </style>
</svg>
